<svg fill="#FDFF00" xmlns="http://www.w3.org/2000/svg" xmlns:xlink="http://www.w3.org/1999/xlink" xml:space="preserve" version="1.1" style="shape-rendering:geometricPrecision;text-rendering:geometricPrecision;image-rendering:optimizeQuality;" viewBox="0 0 847 847" x="0px" y="0px" fill-rule="evenodd" clip-rule="evenodd"><defs><style type="text/css">
   
    .fil0 {fill:#FDFF00}
   
  </style></defs><g><path class="fil0" d="M423 21c32,105 63,210 94,315 110,-2 220,-5 329,-8 -90,63 -180,125 -271,187 37,104 73,207 110,310 -87,-66 -175,-133 -262,-199 -87,66 -174,133 -261,199 36,-103 73,-206 109,-310 -90,-62 -180,-124 -270,-187 109,3 219,6 328,8 32,-105 63,-210 94,-315z"></path></g></svg>